<?xml version="1.0" encoding="utf-8"?>
<!-- Generator: Adobe Illustrator 22.1.0, SVG Export Plug-In . SVG Version: 6.00 Build 0)  -->
<svg version="1.1" id="Vordergrund" xmlns="http://www.w3.org/2000/svg" xmlns:xlink="http://www.w3.org/1999/xlink" x="0px"
	 y="0px" viewBox="0 0 288.3 83.7" enable-background="new 0 0 288.3 83.7" xml:space="preserve" fill="#0074E1">
<g>
	<path d="M50.2,42.9c-0.3-2.7-0.6-5-3-6.3c-2.3-1.2-4-0.7-6.5-0.4l-13,1.4l4.7,44.6l11.9-1.3c3-0.3,5.5-0.1,7.5-2.3
		c1.6-1.8,1.7-4,1.4-6.5L50.2,42.9z M43,73.3c-0.3,0.4-0.7,0.3-1.2,0.4l-0.9,0.1l-3.1-29.6l0.7-0.1c0.5-0.1,0.9-0.1,1.4,0.1
		c0.6,0.3,0.8,1.2,0.9,2l2.6,25C43.5,72,43.6,72.7,43,73.3z"/>
	<path d="M78.3,58.2c-0.9-1.3-1.8-2-3.2-2.6c1.1-0.5,1.7-1.1,2.3-2.2c1-1.5,0.8-2.9,0.6-4.6l-0.9-8.5c-0.3-2.8-0.9-5.2-3.4-6.4
		c-2-1-3.7-0.7-6-0.4l-13,1.4l4.7,44.6l9.3-1l-1.9-17.6l0.7-0.1c0.5-0.1,1-0.1,1.4,0.2c0.6,0.3,0.8,1.1,0.9,2L71.6,78l9.4-1
		l-1.5-13.9C79.3,61.1,79.4,59.8,78.3,58.2z M68.2,51.9c-0.3,0.4-0.7,0.3-1.2,0.4l-0.9,0.1l-1.2-11.2l0.7-0.1c0.5-0.1,1-0.2,1.5,0.1
		c0.6,0.3,0.8,1.2,0.9,2l0.7,6.5C68.7,50.6,68.7,51.3,68.2,51.9z"/>
	<rect x="84.4" y="31.2" transform="matrix(0.9945 -0.1046 0.1046 0.9945 -5.1188 9.6099)" width="9.5" height="44.8"/>
	<polygon points="110.4,57.6 105.4,29.4 96.6,30.3 106.2,74.3 117,73.2 118.7,28 109.6,28.9 	"/>
	<polygon points="135.9,63.8 134.5,50.5 139.7,49.9 138.9,42.6 133.7,43.1 132.8,34 138,33.4 137.2,26 122.6,27.6 127.3,72.1 
		141.9,70.6 141.1,63.2 	"/>
	<polygon points="144.9,6.2 144.9,6.2 145,6.2 144.3,0.2 135,0.2 135.7,7.2 	"/>
	<polygon points="154.2,5.2 145,6.2 144.9,6.2 144.9,6.2 145.9,15.4 155.2,14.5 154.2,5.2 154.2,5.2 	"/>
	<polygon points="154.2,5.2 154.2,5.2 163.5,4.2 163.5,4.2 163.5,4.2 163,0.2 153.7,0.2 154.2,5.2 	"/>
	<polygon points="172.7,3.3 163.5,4.2 163.5,4.2 163.5,4.2 164.4,13.5 173.7,12.5 172.7,3.3 172.7,3.3 	"/>
	<polygon points="172.7,3.3 172.7,3.3 182,2.3 182,2.3 182,2.3 181.7,0.2 172.4,0.2 172.7,3.3 	"/>
	<polygon points="191.2,1.3 182,2.3 182,2.3 182,2.3 182.9,11.6 192.2,10.6 191.2,1.3 191.2,1.3 	"/>
	<polygon points="191.2,1.3 191.2,1.3 200.5,0.4 200.5,0.4 200.5,0.4 200.4,0.2 191.1,0.2 191.2,1.3 	"/>
	<polygon points="200.5,0.4 200.5,0.4 201.4,9.6 210.7,8.6 209.8,0.2 202.3,0.2 200.5,0.4 	"/>
	<polygon points="229.2,6.7 228.5,0.2 219.1,0.2 219.9,7.7 	"/>
	<polygon points="247.7,4.8 247.2,0.2 237.8,0.2 238.4,5.7 	"/>
	<polygon points="266.2,2.8 265.9,0.2 256.5,0.2 256.9,3.8 	"/>
	<polygon points="284.7,0.9 284.6,0.2 275.2,0.2 275.4,1.8 	"/>
	<polygon points="6.2,20.8 6.2,20.8 6.2,20.8 -0.5,21.5 -0.5,30.8 7.2,30 	"/>
	<polygon points="15.5,19.8 14.5,10.5 5.3,11.5 6.2,20.8 6.2,20.8 6.2,20.8 15.5,19.8 15.5,19.8 	"/>
	<polygon points="24.7,18.8 15.5,19.8 15.5,19.8 15.5,19.8 16.5,29 25.7,28.1 24.7,18.8 24.7,18.8 	"/>
	<polygon points="34,17.8 33,8.6 23.8,9.6 24.7,18.8 24.7,18.8 24.7,18.8 34,17.8 34,17.8 	"/>
	<polygon points="43.2,16.9 34,17.8 34,17.8 34,17.8 35,27.1 44.2,26.1 43.2,16.9 43.2,16.9 	"/>
	<polygon points="52.5,15.9 51.5,6.7 42.3,7.6 43.2,16.9 43.2,16.9 43.2,16.9 52.5,15.9 52.5,15.9 	"/>
	<polygon points="61.7,14.9 52.5,15.9 52.5,15.9 52.5,15.9 53.5,25.2 62.7,24.2 61.7,14.9 61.7,14.9 	"/>
	<polygon points="71,14 70,4.7 60.7,5.7 61.7,14.9 61.7,14.9 61.7,14.9 71,14 71,14 	"/>
	<polygon points="80.2,13 71,14 71,14 71,14 71.9,23.2 81.2,22.2 80.2,13 80.2,13 	"/>
	<polygon points="89.5,12 88.5,2.8 79.2,3.7 80.2,13 80.2,13 80.2,13 89.5,12 89.5,12 	"/>
	<polygon points="98.7,11 89.5,12 89.5,12 89.5,12 90.4,21.3 99.7,20.3 98.7,11.1 98.7,11.1 	"/>
	<polygon points="108,10.1 107,0.8 97.7,1.8 98.7,11 98.7,11.1 98.7,11.1 108,10.1 108,10.1 	"/>
	<polygon points="117.2,9.1 108,10.1 108,10.1 108,10.1 108.9,19.3 118.2,18.4 117.2,9.1 117.2,9.1 	"/>
	<polygon points="117.2,9.1 117.2,9.1 126.5,8.1 126.5,8.1 126.5,8.1 125.7,0.5 116.3,0.5 117.2,9.1 	"/>
	<polygon points="126.5,8.1 127.4,17.4 136.7,16.4 135.7,7.2 126.5,8.1 126.5,8.1 	"/>
</g>
</svg>
